#!OML:ASF I:\golf\golf\golf 2\Subject 1\2002-09-07\Subject1.ASF
:FULLY-SPECIFIED
:DEGREES
602
root -3.47478 18.0859 -8.22068 6.18586 -0.401724 -6.01598
lowerback -7.09071 0.0985123 -1.59668
upperback -2.54141 0.134663 5.65194
thorax 1.32635 0.0903399 6.81286
lowerneck -23.1314 -1.39893 0.540811
upperneck 21.6137 -1.96685 -0.699627
head 10.7752 -0.941128 -0.653119
rclavicle -9.49197e-015 3.26007e-014
rhumerus -26.5784 3.38144 -81.8332
rradius 33.2824
rwrist -9.92462
rhand -19.1717 12.1628
rfingers 7.12502
rthumb 7.13941 -17.6967
lclavicle -9.49197e-015 3.26007e-014
lhumerus -25.7063 -11.4784 97.3791
lradius 35.4902
lwrist 7.39672
lhand -7.9748 33.9125
lfingers 7.12502
lthumb 17.9331 63.1057
rfemur -12.5005 -3.91936 27.2399
rtibia 23.9231
rfoot -13.2512 -5.52274
rtoes 6.97909
lfemur -11.565 8.05675 -13.4581
ltibia 25.5796
lfoot -15.081 11.3974
ltoes -3.83713
603
root -3.49603 18.0844 -8.21012 6.15984 -0.266659 -6.06226
lowerback -6.99148 0.0202077 -1.5813
upperback -2.65074 0.034435 5.66582
thorax 1.17077 0.0454997 6.80875
lowerneck -23.1262 -1.37752 0.652602
upperneck 21.7948 -1.9729 -0.719651
head 10.8396 -0.935977 -0.681449
rclavicle 1.93815e-015 -7.07673e-014
rhumerus -26.6808 3.16025 -81.9087
rradius 32.9279
rwrist -9.82577
rhand -19.238 12.2106
rfingers 7.12502
rthumb 7.07545 -17.6512
lclavicle 1.93815e-015 -7.07673e-014
lhumerus -25.9654 -11.4955 97.4177
lradius 35.0396
lwrist 6.9905
lhand -8.00196 33.6419
lfingers 7.12502
lthumb 17.907 62.8375
rfemur -12.3987 -3.8401 27.3837
rtibia 23.8864
rfoot -13.2897 -5.7171
rtoes 6.96477
lfemur -11.5088 7.93821 -13.3027
ltibia 25.5588
lfoot -15.0347 11.4171
ltoes -3.93058
604
root -3.5158 18.0849 -8.20511 6.19073 -0.222124 -5.99723
lowerback -6.93542 -0.0432572 -1.70917
upperback -2.74321 -0.0381515 5.69336
thorax 1.05271 0.0141209 6.90569
lowerneck -23.0844 -1.39088 0.655167
upperneck 21.8865 -1.99376 -0.71728
head 10.8656 -0.944532 -0.684808
rclavicle -4.5969e-015 1.74931e-014
rhumerus -26.7404 2.94738 -81.918
rradius 32.5534
rwrist -9.72529
rhand -19.3597 12.3654
rfingers 7.12502
rthumb 6.95796 -17.5003
lclavicle -4.5969e-015 1.74931e-014
lhumerus -26.0979 -11.4104 97.4752
lradius 34.305
lwrist 6.13717
lhand -8.21826 32.7689
lfingers 7.12502
lthumb 17.6988 61.9834
rfemur -12.3876 -3.77442 27.3938
rtibia 23.8456
rfoot -13.2909 -5.83013
rtoes 6.87201
lfemur -11.5352 7.7986 -13.3006
ltibia 25.5524
lfoot -14.9656 11.5097
ltoes -4.00489
605
root -3.53133 18.0851 -8.19964 6.21518 -0.305242 -6.00348
lowerback -6.95973 -0.0670283 -1.73702
upperback -2.76033 -0.0693206 5.77478
thorax 1.05233 -0.000815667 7.00706
lowerneck -23.0049 -1.41716 0.562585
upperneck 21.8139 -1.99271 -0.732325
head 10.8249 -0.954592 -0.673344
rclavicle -8.24956e-015 -1.59028e-015
rhumerus -26.6766 2.82209 -81.8358
rradius 32.1946
rwrist -9.68424
rhand -19.3988 12.3537
rfingers 7.12502
rthumb 6.92018 -17.5132
lclavicle -8.24956e-015 -1.59028e-015
lhumerus -26.0788 -11.2074 97.5646
lradius 33.2785
lwrist 4.71138
lhand -8.71731 31.0889
lfingers 7.12502
lthumb 17.2185 60.346
rfemur -12.3815 -3.62896 27.4499
rtibia 23.8272
rfoot -13.3401 -5.86776
rtoes 7.149
lfemur -11.5349 7.7679 -13.2376
ltibia 25.5542
lfoot -14.9555 11.5942
ltoes -3.98449
606
root -3.54427 18.0825 -8.19376 6.26136 -0.500262 -6.11518
lowerback -6.9811 -0.0370068 -1.57971
upperback -2.79822 -0.0394456 5.83511
thorax 1.02103 0.0150431 6.98289
lowerneck -22.9867 -1.41986 0.544185
upperneck 21.8706 -1.98285 -0.760353
head 10.8424 -0.955119 -0.679304
rclavicle 2.93207e-015 -7.07673e-014
rhumerus -26.628 2.56523 -81.7598
rradius 31.7834
rwrist -9.43892
rhand -19.3987 12.3505
rfingers 7.12502
rthumb 6.92029 -17.5164
lclavicle 2.93207e-015 -7.07673e-014
lhumerus -26.1462 -10.9269 97.559
lradius 32.5325
lwrist 3.69895
lhand -8.95222 30.196
lfingers 7.12502
lthumb 16.9924 59.4727
rfemur -12.4103 -3.50456 27.6068
rtibia 23.8047
rfoot -13.3672 -5.78132
rtoes 7.23037
lfemur -11.5233 7.82086 -13.0787
ltibia 25.561
lfoot -15.0003 11.7068
ltoes -3.78217
607
root -3.55628 18.0802 -8.18829 6.30331 -0.719375 -6.21016
lowerback -6.91171 0.0392239 -1.36701
upperback -2.8937 0.0543205 5.79765
thorax 0.871887 0.0658903 6.82525
lowerneck -22.9697 -1.42332 0.671567
upperneck 22.0547 -2.02977 -0.778031
head 10.9054 -0.966808 -0.715821
rclavicle 4.96962e-017 -1.59028e-014
rhumerus -26.6839 2.08682 -81.765
rradius 31.3211
rwrist -9.19846
rhand -19.5232 12.4415
rfingers 7.12502
rthumb 6.80013 -17.4293
lclavicle 4.96962e-017 -1.59028e-014
lhumerus -26.3555 -10.7916 97.4603
lradius 32.0391
lwrist 3.27455
lhand -8.81275 30.283
lfingers 7.12502
lthumb 17.1267 59.5481
rfemur -12.4375 -3.53861 27.7389
rtibia 23.7751
rfoot -13.3126 -5.55945
rtoes 6.9505
lfemur -11.4932 7.89471 -12.9504
ltibia 25.5591
lfoot -15.0425 11.8014
ltoes -3.59439
608
root -3.57106 18.0817 -8.17687 6.33758 -0.870939 -6.20248
lowerback -6.94146 0.0665082 -1.34769
upperback -2.9476 0.091406 5.78053
thorax 0.827878 0.0862627 6.79858
lowerneck -22.9473 -1.44543 0.742778
upperneck 22.1717 -2.08206 -0.796851
head 10.943 -0.986231 -0.743675
rclavicle 8.64713e-015 1.98785e-014
rhumerus -26.7153 1.71594 -81.7396
rradius 30.8961
rwrist -9.13051
rhand -19.6886 12.4217
rfingers 7.12502
rthumb 6.64043 -17.4542
lclavicle 8.64713e-015 1.98785e-014
lhumerus -26.5382 -10.8486 97.4366
lradius 31.6745
lwrist 3.49681
lhand -8.51438 30.9321
lfingers 7.12502
lthumb 17.4138 60.172
rfemur -12.428 -3.51526 27.7643
rtibia 23.7809
rfoot -13.3285 -5.41819
rtoes 7.273
lfemur -11.4435 8.00802 -12.9103
ltibia 25.5299
lfoot -15.0551 11.7535
ltoes -3.32496
609
root -3.5872 18.083 -8.16417 6.36331 -1.0187 -6.07281
lowerback -7.12111 0.0322277 -1.59173
upperback -2.89972 0.054965 5.85885
thorax 0.980642 0.0655157 7.02391
lowerneck -22.9434 -1.42007 0.591199
upperneck 22.0948 -2.01595 -0.707616
head 10.9173 -0.958179 -0.674964
rclavicle 2.73329e-015 -5.56597e-015
rhumerus -26.6192 1.54439 -81.5696
rradius 30.5056
rwrist -8.99282
rhand -19.6495 12.2141
rfingers 7.12502
rthumb 6.67818 -17.6606
lclavicle 2.73329e-015 -5.56597e-015
lhumerus -26.6254 -10.8353 97.4974
lradius 31.5576
lwrist 4.16676
lhand -8.13601 32.1122
lfingers 7.12502
lthumb 17.778 61.3195
rfemur -12.4159 -3.35989 27.6602
rtibia 23.8152
rfoot -13.3722 -5.40124
rtoes 7.84352
lfemur -11.3637 8.09278 -12.999
ltibia 25.471
lfoot -15.0584 11.7366
ltoes -3.29425
610
root -3.60208 18.0808 -8.15621 6.32947 -1.08494 -5.95912
lowerback -7.11988 -0.0221845 -1.78408
upperback -2.88022 -0.00729831 5.93168
thorax 1.00765 0.0344854 7.20941
lowerneck -23.0353 -1.4171 0.472451
upperneck 22.2503 -1.9799 -0.674212
head 10.9944 -0.946791 -0.639947
rclavicle -1.66979e-014 -4.6118e-014
rhumerus -26.5901 1.42063 -81.4266
rradius 30.1448
rwrist -8.90051
rhand -19.6171 12.0014
rfingers 7.12502
rthumb 6.70942 -17.8723
lclavicle -1.66979e-014 -4.6118e-014
lhumerus -26.4794 -10.0269 97.368
lradius 30.8356
lwrist 3.79862
lhand -7.92182 32.5451
lfingers 7.12502
lthumb 17.9841 61.7336
rfemur -12.368 -3.42301 27.583
rtibia 23.8411
rfoot -13.3749 -5.3263
rtoes 7.94425
lfemur -11.2436 8.09044 -13.0706
ltibia 25.405
lfoot -15.059 11.768
ltoes -3.37967
611
root -3.6167 18.0797 -8.14715 6.30668 -1.00313 -5.87421
lowerback -6.99285 -0.0806163 -1.80881
upperback -2.95896 -0.0782237 5.88261
thorax 0.865185 0.00367426 7.16368
lowerneck -23.1238 -1.43768 0.56858
upperneck 22.4855 -2.03673 -0.707266
head 11.0967 -0.967067 -0.680162
rclavicle 1.84373e-014 3.10104e-014
rhumerus -26.7385 1.13831 -81.4248
rradius 29.8009
rwrist -8.9107
rhand -19.6477 12.0147
rfingers 7.12502
rthumb 6.67992 -17.8599
lclavicle 1.84373e-014 3.10104e-014
lhumerus -26.5939 -9.78752 97.1815
lradius 30.1387
lwrist 3.58101
lhand -7.96762 32.3123
lfingers 7.12502
lthumb 17.94 61.5048
rfemur -12.3312 -3.70394 27.5531
rtibia 23.8673
rfoot -13.4618 -5.17835
rtoes 7.73457
lfemur -11.1906 7.98615 -13.0954
ltibia 25.3623
lfoot -15.016 11.7581
ltoes -3.16256
612
root -3.63119 18.0799 -8.13544 6.32697 -0.993494 -5.85605
lowerback -6.99139 -0.0886046 -1.74549
upperback -3.01418 -0.0897974 5.82029
thorax 0.808916 -0.000455316 7.05863
lowerneck -23.2962 -1.48392 0.72555
upperneck 22.7416 -2.13444 -0.80672
head 11.2209 -1.0087 -0.762727
rclavicle -2.5842e-015 -3.73715e-014
rhumerus -26.8659 0.707033 -81.388
rradius 29.4329
rwrist -8.85357
rhand -19.6684 12.0264
rfingers 7.12502
rthumb 6.6599 -17.8489
lclavicle -2.5842e-015 -3.73715e-014
lhumerus -26.7099 -9.66755 96.9577
lradius 29.4627
lwrist 3.38703
lhand -7.92747 32.0912
lfingers 7.12502
lthumb 17.9786 61.2802
rfemur -12.3304 -3.81788 27.5822
rtibia 23.8992
rfoot -13.5179 -5.07501
rtoes 7.48499
lfemur -11.1751 7.89342 -13.0553
ltibia 25.3493
lfoot -14.9831 11.794
ltoes -2.77985
613
root -3.64469 18.0815 -8.1273 6.39589 -1.12674 -5.98032
lowerback -7.09267 -0.0645908 -1.61171
upperback -3.01014 -0.0689868 5.87671
thorax 0.866666 0.00790288 7.04409
lowerneck -23.496 -1.48569 0.808771
upperneck 22.9165 -2.13688 -0.926166
head 11.3216 -1.01681 -0.824928
rclavicle -1.43622e-014 6.75868e-014
rhumerus -26.8604 0.342419 -81.2347
rradius 29.0197
rwrist -8.66396
rhand -19.7462 11.8755
rfingers 7.12502
rthumb 6.58483 -18.0021
lclavicle -1.43622e-014 6.75868e-014
lhumerus -26.6798 -9.29106 96.7723
lradius 28.7238
lwrist 3.01936
lhand -7.77446 32.0929
lfingers 7.12502
lthumb 18.1258 61.2684
rfemur -12.3771 -3.72493 27.7544
rtibia 23.9166
rfoot -13.5484 -5.00689
rtoes 8.02272
lfemur -11.184 7.88069 -12.8911
ltibia 25.3443
lfoot -15.0069 11.9211
ltoes -2.69023
614
root -3.65863 18.0838 -8.12014 6.51199 -1.24163 -5.97393
lowerback -7.24524 -0.0938732 -1.62166
upperback -2.98665 -0.111838 5.92306
thorax 0.981437 -0.0165926 7.09787
lowerneck -23.6561 -1.44359 0.794313
upperneck 22.9667 -2.07415 -0.924769
head 11.3717 -0.989024 -0.814126
rclavicle 3.47873e-015 7.15625e-014
rhumerus -26.7387 -0.0791452 -81.0631
rradius 28.4636
rwrist -8.26116
rhand -19.7661 11.7799
rfingers 7.12502
rthumb 6.56565 -18.0984
lclavicle 3.47873e-015 7.15625e-014
lhumerus -26.5639 -8.76573 96.552
lradius 27.951
lwrist 2.69095
lhand -7.78089 31.9943
lfingers 7.12502
lthumb 18.1197 61.1703
rfemur -12.4767 -3.60148 27.7888
rtibia 23.93
rfoot -13.552 -4.98037
rtoes 8.65766
lfemur -11.2455 7.84187 -12.8865
ltibia 25.3327
lfoot -15.0239 12.0873
ltoes -3.05223
615
root -3.67337 18.0826 -8.10915 6.56107 -1.30977 -5.86671
lowerback -7.30237 -0.136102 -1.72306
upperback -2.99333 -0.162249 5.92212
thorax 1.01298 -0.0420469 7.15222
lowerneck -23.7384 -1.45408 0.716688
upperneck 23.022 -2.08219 -0.850135
head 11.41 -0.989182 -0.776614
rclavicle 1.15295e-014 -4.21423e-014
rhumerus -26.6933 -0.573389 -80.9076
rradius 27.8368
rwrist -7.80805
rhand -19.8089 11.7692
rfingers 7.12502
rthumb 6.52428 -18.1103
lclavicle 1.15295e-014 -4.21423e-014
lhumerus -26.5501 -8.23925 96.2939
lradius 27.2069
lwrist 2.4199
lhand -7.81001 32.1061
lfingers 7.12502
lthumb 18.0916 61.2847
rfemur -12.5033 -3.51045 27.7091
rtibia 23.9565
rfoot -13.5359 -4.98223
rtoes 8.82086
lfemur -11.2198 7.76716 -12.9687
ltibia 25.3154
lfoot -15.0594 12.1868
ltoes -3.12843
616
root -3.68608 18.0799 -8.09894 6.55955 -1.399 -5.86987
lowerback -7.28241 -0.117286 -1.7373
upperback -3.02864 -0.135006 5.95307
thorax 0.961382 -0.0261696 7.19582
lowerneck -23.6323 -1.51472 0.677998
upperneck 22.9852 -2.15693 -0.834634
head 11.376 -1.02482 -0.775214
rclavicle 3.926e-015 -8.74653e-015
rhumerus -26.7756 -1.01455 -80.6884
rradius 27.275
rwrist -7.51734
rhand -19.9466 11.8951
rfingers 7.12502
rthumb 6.39138 -17.9885
lclavicle 3.926e-015 -8.74653e-015
lhumerus -26.645 -7.81555 96.0872
lradius 26.4803
lwrist 2.13598
lhand -7.75092 32.335
lfingers 7.12502
lthumb 18.1485 61.5084
rfemur -12.4792 -3.44443 27.7466
rtibia 23.9862
rfoot -13.6103 -4.9762
rtoes 8.88795
lfemur -11.1331 7.68557 -12.9186
ltibia 25.2855
lfoot -15.121 12.288
ltoes -2.69997
